<svg width="12" height="12" viewBox="0 0 12 12" fill="none" xmlns="http://www.w3.org/2000/svg">
<path fill-rule="evenodd" clip-rule="evenodd" d="M6.00008 0.840413C8.8999 -0.768317 10.6732 0.155609 11.4165 1.73963C11.8137 2.58624 12.1336 4.0881 11.9438 5.65525H9.2566L8.90575 4.86307C8.76061 4.48886 8.27479 4.44962 8.08573 4.81081L7.79945 5.35735L7.21301 2.82954C7.11871 2.32057 6.44676 2.29034 6.31995 2.79697L5.69191 5.30107L5.4839 4.46699C5.39145 4.0906 4.94338 3.96754 4.69932 4.26644L3.56219 5.65525H0.0562092C-0.13362 4.0881 0.186254 2.58624 0.583632 1.73963C1.32677 0.155609 3.1001 -0.768317 6.00008 0.840413ZM11.7513 6.65031C11.1299 8.94819 7.92687 11.6301 6.00008 12C4.07328 11.63 0.870224 8.94835 0.248812 6.65048H3.76635C3.91735 6.65048 4.05125 6.57133 4.13491 6.4496L4.81981 5.61317L5.24677 7.33445C5.36788 7.82538 6.01071 7.82037 6.13243 7.33612L6.74599 4.89146L7.18866 6.79993C7.29236 7.24979 7.85553 7.3089 8.04367 6.90162L8.45029 6.12498L8.55738 6.3666C8.6358 6.54444 8.79928 6.64831 8.96985 6.64847L11.7513 6.65031Z" fill="white"/>
</svg>
