<svg width="12" height="12" viewBox="0 0 12 12" fill="none" xmlns="http://www.w3.org/2000/svg">
<g clip-path="url(#clip0_1258_4945)">
<path fill-rule="evenodd" clip-rule="evenodd" d="M11.0722 0.0562839C11.1266 0.0898797 11.1714 0.136793 11.2025 0.192576C11.2336 0.248359 11.25 0.311164 11.25 0.375034V11.625C11.25 11.7245 11.2105 11.8199 11.1402 11.8902C11.0698 11.9605 10.9745 12 10.875 12H8.625C8.52554 12 8.43016 11.9605 8.35983 11.8902C8.28951 11.8199 8.25 11.7245 8.25 11.625V10.5H7.5V11.625C7.5 11.7245 7.46049 11.8199 7.39017 11.8902C7.31984 11.9605 7.22446 12 7.125 12H0.375C0.275544 12 0.180161 11.9605 0.109835 11.8902C0.0395088 11.8199 0 11.7245 0 11.625V7.50003C5.97351e-05 7.42136 0.0248611 7.3447 0.0708937 7.2809C0.116926 7.2171 0.181859 7.16939 0.2565 7.14453L4.5 5.73003V3.37503C4.5 3.30545 4.51937 3.23724 4.55592 3.17803C4.59248 3.11882 4.64479 3.07096 4.707 3.03978L10.707 0.0397839C10.7642 0.0111383 10.8278 -0.00238398 10.8918 0.00050418C10.9557 0.00339234 11.0178 0.0225948 11.0722 0.0562839ZM4.5 6.52053L0.75 7.77003V11.25H4.5V6.52053ZM5.25 11.25H6.75V10.125C6.75 10.0256 6.78951 9.93019 6.85983 9.85987C6.93016 9.78954 7.02554 9.75003 7.125 9.75003H8.625C8.72446 9.75003 8.81984 9.78954 8.89017 9.85987C8.96049 9.93019 9 10.0256 9 10.125V11.25H10.5V0.981784L5.25 3.60678V11.25Z" fill="white"/>
<path d="M1.5 8.25003H2.25V9.00003H1.5V8.25003ZM3 8.25003H3.75V9.00003H3V8.25003ZM1.5 9.75003H2.25V10.5H1.5V9.75003ZM3 9.75003H3.75V10.5H3V9.75003ZM6 6.75003H6.75V7.50003H6V6.75003ZM7.5 6.75003H8.25V7.50003H7.5V6.75003ZM6 8.25003H6.75V9.00003H6V8.25003ZM7.5 8.25003H8.25V9.00003H7.5V8.25003ZM9 6.75003H9.75V7.50003H9V6.75003ZM9 8.25003H9.75V9.00003H9V8.25003ZM6 5.25003H6.75V6.00003H6V5.25003ZM7.5 5.25003H8.25V6.00003H7.5V5.25003ZM9 5.25003H9.75V6.00003H9V5.25003ZM6 3.75003H6.75V4.50003H6V3.75003ZM7.5 3.75003H8.25V4.50003H7.5V3.75003ZM9 3.75003H9.75V4.50003H9V3.75003ZM9 2.25003H9.75V3.00003H9V2.25003Z" fill="white"/>
</g>
<defs>
<clipPath id="clip0_1258_4945">
<rect width="12" height="12" fill="white"/>
</clipPath>
</defs>
</svg>
