<svg width="20" height="20" viewBox="0 0 20 20" fill="none" xmlns="http://www.w3.org/2000/svg">
<path fill-rule="evenodd" clip-rule="evenodd" d="M13.4324 2.91872H6.94596C6.94596 2.47092 6.58295 2.10791 6.13515 2.10791C5.68736 2.10791 5.32434 2.47092 5.32434 2.91872L5.32892 3.73914C5.345 5.09634 5.40527 6.21851 5.54474 7.1347C5.68346 8.04607 5.90885 8.81444 6.29529 9.42424C6.51633 9.77304 6.77541 10.0492 7.0675 10.2669C7.05482 10.2771 7.04219 10.2875 7.02963 10.2979C6.20175 10.986 5.78927 12.0273 5.57079 13.3246C5.38473 14.4295 5.32434 15.8154 5.32434 17.5133C5.32434 17.9611 5.68735 18.3241 6.13515 18.3241C6.58295 18.3241 6.94596 17.9611 6.94596 17.5133C6.94596 16.1994 6.97339 15.1339 7.0675 14.2701H7.99212C8.43992 14.2701 8.80293 13.9071 8.80293 13.4593C8.80293 13.0115 8.43992 12.6485 7.99212 12.6485H7.39401C7.57417 12.0991 7.80298 11.7632 8.06545 11.545C8.45603 11.2203 9.07628 11.0268 10.1932 11.0268C11.3101 11.0268 11.9239 11.2203 12.3145 11.545C12.5769 11.7632 12.8057 12.0991 12.9859 12.6485H10.5919C10.1441 12.6485 9.78105 13.0115 9.78105 13.4593C9.78105 13.9071 10.1441 14.2701 10.5919 14.2701H13.3014C13.353 14.7458 13.3876 15.2836 13.4083 15.8917H9.37839C8.9306 15.8917 8.56758 16.2547 8.56758 16.7025C8.56758 17.1503 8.9306 17.5133 9.37839 17.5133L13.4324 17.5133C13.4324 17.9611 13.7955 18.3241 14.2433 18.3241C14.6911 18.3241 15.0541 17.9611 15.0541 17.5133C15.0541 17.2301 15.0524 16.9562 15.0488 16.6914C15.0306 15.3659 14.9638 14.2491 14.8086 13.325C14.5908 12.0279 14.1791 10.9862 13.351 10.2979C13.3378 10.2869 13.3244 10.276 13.311 10.2652C13.6021 10.0478 13.8604 9.77226 14.081 9.42452C14.4677 8.81483 14.6936 8.04655 14.8328 7.13505C14.9726 6.21877 15.0333 5.09653 15.0495 3.7392C15.0526 3.4754 15.0541 3.20199 15.0541 2.91872C15.0541 2.47092 14.6911 2.10791 14.2433 2.10791C13.7955 2.10791 13.4324 2.47092 13.4324 2.91872ZM10.1867 9.40521C8.63061 9.40521 8.02812 9.12917 7.66504 8.55622C7.54271 8.3632 7.43208 8.11268 7.33674 7.78359H9.3784C9.8262 7.78359 10.1892 7.42057 10.1892 6.97277C10.1892 6.52498 9.8262 6.16196 9.3784 6.16196H7.0597C7.01488 5.68797 6.98479 5.15044 6.96688 4.54034H13.4114C13.3835 5.48724 13.326 6.25933 13.2297 6.89031C13.1062 7.6994 12.9269 8.2165 12.7116 8.55594C12.3479 9.12937 11.745 9.40521 10.1917 9.40521H10.1867Z" fill="#554F9B"/>
</svg>
