<svg width="30" height="31" viewBox="0 0 30 31" fill="none" xmlns="http://www.w3.org/2000/svg">
<path d="M5.90538 13.6225L8.2525 11.1916L12.9836 15.9227L13.325 16.2641V15.7812V0.7H16.675V15.7812V16.2641L17.0164 15.9227L21.7475 11.1916L24.0946 13.6225L15 22.7172L5.90538 13.6225ZM0.2 21.325H3.55V26.75V26.95H3.75H26.25H26.45V26.75V21.325H29.8V26.75C29.8 27.7278 29.4544 28.5603 28.7578 29.2581C28.0614 29.9557 27.2292 30.3012 26.2502 30.3H26.25H3.75C2.77216 30.3 1.94043 29.9545 1.24392 29.258C0.547436 28.5615 0.201214 27.7291 0.2 26.7499V21.325ZM26.25 30.5H3.75C2.71875 30.5 1.83625 30.1331 1.1025 29.3994L26.25 30.5Z" fill="black" fill-opacity="0.7" stroke="white" stroke-width="0.4"/>
</svg>
