<svg width="12" height="12" viewBox="0 0 12 12" fill="none" xmlns="http://www.w3.org/2000/svg">
<path d="M6.96975 0H3C2.60218 0 2.22064 0.158035 1.93934 0.43934C1.65804 0.720644 1.5 1.10218 1.5 1.5V10.5C1.5 10.8978 1.65804 11.2794 1.93934 11.5607C2.22064 11.842 2.60218 12 3 12H9C9.39782 12 9.77936 11.842 10.0607 11.5607C10.342 11.2794 10.5 10.8978 10.5 10.5V3.53025C10.5 3.33135 10.4209 3.14062 10.2802 3L7.5 0.21975C7.35938 0.079088 7.16865 4.24781e-05 6.96975 0V0ZM7.125 2.625V1.125L9.375 3.375H7.875C7.67609 3.375 7.48532 3.29598 7.34467 3.15533C7.20402 3.01468 7.125 2.82391 7.125 2.625ZM8.1405 5.8905L5.8905 8.1405C5.85567 8.17542 5.81428 8.20313 5.76873 8.22203C5.72317 8.24094 5.67433 8.25067 5.625 8.25067C5.57567 8.25067 5.52683 8.24094 5.48127 8.22203C5.43572 8.20313 5.39433 8.17542 5.3595 8.1405L4.2345 7.0155C4.19963 6.98063 4.17198 6.93924 4.15311 6.89369C4.13424 6.84813 4.12453 6.79931 4.12453 6.75C4.12453 6.70069 4.13424 6.65187 4.15311 6.60631C4.17198 6.56076 4.19963 6.51937 4.2345 6.4845C4.30491 6.41408 4.40042 6.37453 4.5 6.37453C4.54931 6.37453 4.59813 6.38424 4.64369 6.40311C4.68924 6.42198 4.73063 6.44963 4.7655 6.4845L5.625 7.34475L7.6095 5.3595C7.67991 5.28908 7.77542 5.24953 7.875 5.24953C7.97458 5.24953 8.07009 5.28908 8.1405 5.3595C8.21092 5.42991 8.25047 5.52542 8.25047 5.625C8.25047 5.72458 8.21092 5.82009 8.1405 5.8905Z" fill="white"/>
</svg>
