<svg width="18" height="18" viewBox="0 0 18 18" fill="none" xmlns="http://www.w3.org/2000/svg">
<path d="M14.5166 3.86173C14.5166 3.60593 14.4662 3.35263 14.3683 3.1163C14.2704 2.87997 14.127 2.66523 13.9461 2.48435C13.7652 2.30347 13.5505 2.15999 13.3141 2.06209C13.0778 1.9642 12.8245 1.91382 12.5687 1.91382H3.71452C3.1979 1.91382 2.70244 2.11904 2.33713 2.48435C1.97183 2.84966 1.7666 3.34512 1.7666 3.86173V12.7159C1.7666 13.2325 1.97183 13.728 2.33713 14.0933C2.70244 14.4586 3.1979 14.6638 3.71452 14.6638H8.43627L8.51064 14.3663C8.57864 14.0943 8.68985 13.8365 8.8386 13.6013H3.71452C3.22577 13.6013 2.8291 13.2047 2.8291 12.7159V3.86173C2.8291 3.37298 3.22577 2.97632 3.71452 2.97632H12.5687C13.0574 2.97632 13.4541 3.37298 13.4541 3.86173V8.90011C13.7636 8.61678 14.1313 8.43261 14.5166 8.3469V3.86173ZM11.6833 10.6681V5.26565L11.6783 5.19482C11.6586 5.06984 11.5946 4.95614 11.4979 4.87446C11.4013 4.79279 11.2785 4.74861 11.152 4.74998C11.0832 4.74905 11.0148 4.76168 10.9509 4.78716C10.8869 4.81264 10.8286 4.85047 10.7793 4.89849C10.73 4.9465 10.6906 5.00377 10.6634 5.06701C10.6362 5.13025 10.6217 5.19823 10.6208 5.26707V11.3169L10.6257 11.3871C10.6378 11.4756 10.6732 11.5571 10.7263 11.6258L11.6833 10.6681ZM5.65748 6.62353C5.6397 6.4966 5.57665 6.38038 5.47993 6.29629C5.38321 6.21219 5.25935 6.1659 5.13118 6.16594C4.99066 6.16594 4.85585 6.22162 4.75628 6.32079C4.65672 6.41996 4.6005 6.55454 4.59993 6.69507V11.3042L4.60489 11.3757C4.64031 11.6343 4.86202 11.8326 5.13118 11.8326C5.42443 11.8326 5.66243 11.596 5.66243 11.3042V6.69507L5.65748 6.62353ZM8.64239 8.72869C8.62358 8.60521 8.56072 8.49271 8.46541 8.41199C8.37009 8.33126 8.24879 8.28776 8.12389 8.28953C7.987 8.29046 7.85606 8.34565 7.7598 8.44298C7.66353 8.54031 7.60979 8.67184 7.61035 8.80873L7.63514 11.3212L7.64081 11.3913C7.65962 11.5148 7.72249 11.6273 7.8178 11.708C7.91311 11.7888 8.03442 11.8323 8.15931 11.8305C8.2962 11.8295 8.42714 11.7744 8.52341 11.677C8.61967 11.5797 8.67342 11.4482 8.67285 11.3113L8.64806 8.79811L8.64239 8.72869ZM13.8791 9.47386L9.69781 13.6544C9.45449 13.8987 9.2817 14.2041 9.19773 14.5384L8.87331 15.8347C8.8409 15.9638 8.8425 16.0991 8.87796 16.2274C8.91342 16.3556 8.98153 16.4725 9.07564 16.5667C9.16976 16.6608 9.28666 16.7289 9.41494 16.7643C9.54323 16.7998 9.67851 16.8014 9.8076 16.769L11.1039 16.4446C11.4382 16.3606 11.7436 16.1878 11.9879 15.9445L16.1684 11.7632C16.4574 11.4567 16.6155 11.0497 16.6092 10.6285C16.603 10.2073 16.4329 9.80513 16.135 9.50732C15.8371 9.20952 15.4349 9.03952 15.0137 9.0334C14.5925 9.02729 14.1855 9.18554 13.8791 9.47457" fill="white"/>
</svg>
