<svg width="12" height="12" viewBox="0 0 12 12" fill="none" xmlns="http://www.w3.org/2000/svg">
<g clip-path="url(#clip0_1258_4946)">
<path fill-rule="evenodd" clip-rule="evenodd" d="M7.12499 1.5C7.02554 1.5 6.93016 1.46049 6.85983 1.39017C6.7895 1.31984 6.74999 1.22446 6.74999 1.125C6.74999 1.02554 6.7895 0.930161 6.85983 0.859835C6.93016 0.789509 7.02554 0.75 7.12499 0.75H10.875C10.9745 0.75 11.0698 0.789509 11.1402 0.859835C11.2105 0.930161 11.25 1.02554 11.25 1.125V4.875C11.25 4.97446 11.2105 5.06984 11.1402 5.14016C11.0698 5.21049 10.9745 5.25 10.875 5.25C10.7755 5.25 10.6802 5.21049 10.6098 5.14016C10.5395 5.06984 10.5 4.97446 10.5 4.875V2.03025L7.40324 5.127C8.0121 5.87189 8.31138 6.8223 8.23918 7.78165C8.16699 8.741 7.72884 9.63591 7.01535 10.2813C6.30187 10.9267 5.36764 11.2731 4.40587 11.2491C3.44411 11.225 2.52839 10.8322 1.84811 10.1519C1.16782 9.4716 0.775018 8.55588 0.750932 7.59412C0.726847 6.63236 1.07332 5.69812 1.7187 4.98464C2.36408 4.27116 3.25899 3.83301 4.21834 3.76081C5.1777 3.68861 6.1281 3.98789 6.87299 4.59675L9.96974 1.5H7.12499ZM4.49999 4.5C3.70435 4.5 2.94128 4.81607 2.37867 5.37868C1.81607 5.94129 1.49999 6.70435 1.49999 7.5C1.49999 8.29565 1.81607 9.05871 2.37867 9.62132C2.94128 10.1839 3.70435 10.5 4.49999 10.5C5.29564 10.5 6.05871 10.1839 6.62132 9.62132C7.18392 9.05871 7.49999 8.29565 7.49999 7.5C7.49999 6.70435 7.18392 5.94129 6.62132 5.37868C6.05871 4.81607 5.29564 4.5 4.49999 4.5V4.5Z" fill="white" stroke="white" stroke-width="0.257143"/>
</g>
<defs>
<clipPath id="clip0_1258_4946">
<rect width="12" height="12" fill="white"/>
</clipPath>
</defs>
</svg>
