<svg width="21" height="21" viewBox="0 0 21 21" fill="none" xmlns="http://www.w3.org/2000/svg">
<path fill-rule="evenodd" clip-rule="evenodd" d="M14.8287 6.78754C14.2524 6.75473 13.9372 6.56711 13.4671 6.2873L13.4661 6.28672C13.4277 6.26384 13.3882 6.24035 13.3475 6.21628C12.6812 5.82254 11.8709 5.41309 10.3481 5.41309C8.82528 5.41309 8.01499 5.82254 7.34873 6.21628C7.30765 6.24056 7.26785 6.26424 7.22911 6.2873C6.759 6.56711 6.44377 6.75473 5.86748 6.78754L5.31616 6.50246C3.84611 5.7423 2.19592 6.87027 2.19592 8.46054V9.79565C2.19592 10.3664 2.41292 10.9276 2.82918 11.3426C3.37926 11.891 4.13937 12.3538 4.71559 12.6651C5.0121 12.8254 5.27729 12.9547 5.4689 13.0441L5.51924 13.0675C6.50089 14.7664 8.36503 15.6033 10.3481 15.6033C12.3312 15.6033 14.1953 14.7664 15.177 13.0675L15.2273 13.0441C15.4189 12.9547 15.6841 12.8254 15.9806 12.6651C16.5568 12.3538 17.3169 11.891 17.867 11.3426C18.2833 10.9276 18.5003 10.3664 18.5003 9.79565V8.46054C18.5003 6.87027 16.8501 5.7423 15.38 6.50246L14.8287 6.78754ZM15.8408 10.8595C16.1722 10.6489 16.4839 10.4192 16.7159 10.1879C16.8091 10.095 16.8698 9.95664 16.8698 9.79565V8.46054C16.8698 7.99968 16.4328 7.79358 16.1289 7.95072L15.8733 8.08291C15.8811 8.20301 15.8888 8.33921 15.8954 8.48826C15.9209 9.05805 15.9319 9.82964 15.8694 10.6133C15.8632 10.6919 15.8533 10.7746 15.8408 10.8595ZM4.85542 10.8595C4.84286 10.7746 4.83303 10.6919 4.82676 10.6133C4.76431 9.82964 4.77526 9.05805 4.80075 8.48826C4.80742 8.33921 4.81513 8.20301 4.8229 8.08291L4.56727 7.95072C4.26337 7.79358 3.82636 7.99968 3.82636 8.46054V9.79565C3.82636 9.95664 3.88713 10.095 3.98031 10.1879C4.21231 10.4192 4.52401 10.6489 4.85542 10.8595ZM12.353 9.64297C11.6588 9.28404 11.0326 9.03453 10.3481 9.03453C9.66361 9.03453 9.03735 9.28403 8.34321 9.64297C7.94329 9.84977 7.78673 10.3416 7.99353 10.7416C8.20033 11.1415 8.69219 11.298 9.09211 11.0912C9.73197 10.7604 10.0691 10.665 10.3481 10.665C10.6271 10.665 10.9642 10.7604 11.6041 11.0912C12.004 11.298 12.4959 11.1415 12.7027 10.7415C12.9095 10.3416 12.7529 9.84977 12.353 9.64297Z" fill="#554F9B"/>
</svg>
