<svg width="20" height="20" viewBox="0 0 20 20" fill="none" xmlns="http://www.w3.org/2000/svg">
<path fill-rule="evenodd" clip-rule="evenodd" d="M11.7481 2.3377C12.069 2.02536 12.5823 2.0323 12.8946 2.35319L14.6507 4.15736C14.963 4.47825 14.9561 4.99158 14.6352 5.30392C14.3143 5.61625 13.801 5.60932 13.4886 5.28843L13.1876 4.97913L12.7602 5.41209L13.2136 5.87454C13.5076 6.17441 13.522 6.64557 13.2568 6.9622C15.253 7.93476 16.6754 9.96522 16.6754 12.3359C16.6754 14.0594 15.9444 15.6108 14.7754 16.7025H15.8646C16.3124 16.7025 16.6754 17.0655 16.6754 17.5133C16.6754 17.9611 16.3124 18.3241 15.8646 18.3241H4.41783C3.97004 18.3241 3.60702 17.9611 3.60702 17.5133C3.60702 17.0655 3.97004 16.7025 4.41783 16.7025H6.53884C6.13129 16.3218 5.77706 15.8853 5.48851 15.4052H3.70241C3.25461 15.4052 2.8916 15.0422 2.8916 14.5944C2.8916 14.1466 3.25461 13.7836 3.70241 13.7836H9.06807C9.51587 13.7836 9.87888 14.1466 9.87888 14.5944C9.87888 15.0422 9.51587 15.4052 9.06807 15.4052H7.52962C8.32663 16.2062 9.43325 16.7025 10.6571 16.7025C13.0897 16.7025 15.0538 14.7431 15.0538 12.3359C15.0538 10.4415 13.7792 8.80586 12.0377 8.20928L8.77053 11.5418C8.61803 11.6973 8.40937 11.7849 8.19155 11.7849C7.97373 11.7849 7.76506 11.6973 7.61257 11.5418L5.58905 9.47777C5.27994 9.16248 5.27994 8.65781 5.58905 8.34252L10.0322 3.81056C10.1847 3.65501 10.3933 3.56737 10.6111 3.56737C10.829 3.56737 11.0376 3.65501 11.1901 3.81056L11.6248 4.25398L12.0563 3.81685L11.7326 3.48425C11.4202 3.16336 11.4272 2.65003 11.7481 2.3377Z" fill="#554F9B"/>
</svg>
