<svg width="18" height="18" viewBox="0 0 18 18" fill="none" xmlns="http://www.w3.org/2000/svg">
<path d="M13.0999 9.88544L14.5166 11.3021V14.6667C14.5166 15.0563 14.378 15.3899 14.1008 15.6676C13.8236 15.9452 13.49 16.0838 13.0999 16.0834H3.18327C2.79368 16.0834 2.4603 15.9448 2.1831 15.6676C1.90591 15.3904 1.76707 15.0567 1.7666 14.6667V4.75002C1.7666 4.36044 1.90543 4.02705 2.1831 3.74985C2.46077 3.47266 2.79416 3.33383 3.18327 3.33335H7.0791C6.98466 3.54585 6.91382 3.77323 6.8666 4.01548C6.81938 4.25773 6.78396 4.50258 6.76035 4.75002H3.18327V14.6667H13.0999V9.88544ZM14.0208 6.80419L16.2874 9.07085L15.2958 10.0625L13.0291 7.79585C12.7812 7.93752 12.5156 8.05558 12.2322 8.15002C11.9489 8.24446 11.6479 8.29169 11.3291 8.29169C10.4437 8.29169 9.6912 7.98167 9.07164 7.36165C8.45209 6.74162 8.14207 5.98913 8.1416 5.10419C8.14113 4.21924 8.45114 3.46676 9.07164 2.84673C9.69214 2.2267 10.4446 1.91669 11.3291 1.91669C12.2136 1.91669 12.9663 2.2267 13.5873 2.84673C14.2082 3.46676 14.518 4.21924 14.5166 5.10419C14.5166 5.42294 14.4694 5.72398 14.3749 6.00731C14.2805 6.29065 14.1624 6.55627 14.0208 6.80419ZM11.3291 6.87502C11.8249 6.87502 12.244 6.70384 12.5864 6.36148C12.9288 6.01912 13.0999 5.60002 13.0999 5.10419C13.0999 4.60835 12.9288 4.18926 12.5864 3.8469C12.244 3.50453 11.8249 3.33335 11.3291 3.33335C10.8333 3.33335 10.4142 3.50453 10.0718 3.8469C9.72945 4.18926 9.55827 4.60835 9.55827 5.10419C9.55827 5.60002 9.72945 6.01912 10.0718 6.36148C10.4142 6.70384 10.8333 6.87502 11.3291 6.87502ZM3.18327 9.88544V14.6667V4.75002V9.70835V9.49585V9.88544Z" fill="white"/>
</svg>
