<svg width="16" height="16" viewBox="0 0 16 16" fill="none" xmlns="http://www.w3.org/2000/svg">
<path d="M6.72829 0.0650719L8.67664 0.0842079L8.65508 1.23448C9.27578 1.20664 9.87575 1.24473 10.4135 1.35183C8.10913 2.13419 7.01678 4.1925 6.838 4.52928L6.8269 4.55005C6.26865 4.46886 5.6639 4.39939 5.09051 4.39854C4.49834 4.43798 3.92357 4.51023 2.9702 4.97602C2.83516 5.05911 2.65333 5.19483 2.40535 5.40299C2.38804 5.39108 2.36923 5.38088 2.34465 5.36628L2.27189 5.3238C2.08956 5.21531 1.90046 5.11611 1.70551 5.0267C1.21474 4.80257 0.611324 4.60997 0.0165891 4.60413L0.0482267 2.91657C1.07647 2.92667 1.9956 3.24769 2.62114 3.53362C2.83802 3.63278 3.02813 3.73125 3.18579 3.81895C3.33432 3.55012 3.52342 3.30058 3.74777 3.07736L2.70526 1.56722L4.43895 0.58911L5.40035 1.98227C5.81793 1.79736 6.253 1.64611 6.70033 1.53031L6.72829 0.0650719ZM11.897 3.89755C11.1813 4.18467 10.5576 4.66154 9.98631 5.58623C9.98631 5.58623 8.76631 5.07211 7.77365 4.80128C8.56533 3.42274 9.47035 2.65187 10.7942 2.12096C12.0749 1.60703 13.5928 1.48705 15.393 1.56086L15.2684 3.62999C13.6084 3.56234 12.6554 3.59345 11.897 3.89755Z" fill="#82809B"/>
<path d="M3.51588 5.84933C-0.0539964 8.62914 4.84247 15.8138 8.86347 15.8822C12.8845 15.9506 18.5498 8.95174 14.5802 5.6315C14.4976 5.56225 14.4155 5.49244 14.334 5.42209C14.0057 5.14026 13.7877 4.95239 13.179 4.61141C11.9428 4.59038 11.1775 5.69683 10.826 6.37314C10.8082 6.40693 10.7865 6.4389 10.7612 6.46851L9.94312 8.42341L9.64501 9.33435C9.61347 9.43041 9.61929 9.53342 9.66151 9.62622L9.97837 10.32L11.6853 10.1702L11.7813 11.0426L10.1754 11.1841L10.2544 12.5672L9.28691 12.6104L9.18845 10.885L8.7663 9.95916C8.63922 9.68072 8.62142 9.37149 8.71586 9.08307L8.72459 9.05603L7.73198 9.44256L7.06091 10.9049L6.1658 10.567L6.69759 9.40874L5.1487 9.05089L5.38609 8.20119L7.31906 8.64801L9.10275 7.95265L9.72585 6.46361C8.20314 5.7848 5.07154 4.63706 3.51541 5.84844" fill="#82809B"/>
</svg>
