<svg width="20" height="20" viewBox="0 0 20 20" fill="none" xmlns="http://www.w3.org/2000/svg">
<path d="M9.61583 3.59741C11.6018 1.61141 14.8218 1.61141 16.8078 3.59741C18.7938 5.58341 18.7938 8.80335 16.8078 10.7893L14.3585 13.2387L7.17167 6.05187L9.61583 3.59741Z" fill="#554F9B"/>
<path fill-rule="evenodd" clip-rule="evenodd" d="M6.02396 7.18929L3.57055 9.64269C1.58455 11.6287 1.58455 14.8486 3.57055 16.8346C5.55655 18.8206 8.77649 18.8206 10.7625 16.8346L13.2142 14.3829L6.02396 7.18929ZM5.88547 12.6137C6.20211 12.297 6.20211 11.7837 5.88547 11.467C5.56883 11.1504 5.05545 11.1504 4.73881 11.467C4.27893 11.9269 4.00052 12.508 4.00052 13.1403C4.00052 13.7726 4.27893 14.3537 4.73881 14.8136C5.05545 15.1303 5.56883 15.1303 5.88547 14.8136C6.20211 14.497 6.20211 13.9836 5.88547 13.667C5.67761 13.4591 5.62215 13.2741 5.62215 13.1403C5.62215 13.0065 5.67761 12.8215 5.88547 12.6137Z" fill="#554F9B"/>
</svg>
