<svg width="21" height="21" viewBox="0 0 21 21" fill="none" xmlns="http://www.w3.org/2000/svg">
<path d="M13.7615 3.78234H6.93194C7.28497 2.81049 8.20319 2.10303 9.2892 2.10303H11.4042C12.4902 2.10303 13.4084 2.81049 13.7615 3.78234Z" fill="#554F9B"/>
<path d="M6.95023 16.8258H10.7293L10.8049 16.9121C10.9726 17.1037 11.1828 17.3438 11.4161 17.584C11.6962 17.8768 11.9514 18.1199 12.1974 18.325C11.9483 18.41 11.6817 18.4563 11.4042 18.4563H9.28918C8.22145 18.4563 7.31592 17.7724 6.95023 16.8258Z" fill="#554F9B"/>
<path fill-rule="evenodd" clip-rule="evenodd" d="M6.83341 15.2442H9.74499C9.28572 13.9192 9.57721 12.4201 10.609 11.3883C11.6036 10.3856 13.1036 10.0432 14.4324 10.4997C14.9591 10.3177 15.5143 10.2627 16.0546 10.3259V7.4997C16.0546 6.59344 15.5613 5.80336 14.8324 5.38173L14.8104 5.36915C14.7725 5.34773 14.7339 5.3273 14.6947 5.30787C14.3666 5.14514 13.9973 5.05405 13.609 5.05405H7.08437C6.64934 5.05405 6.23854 5.16835 5.88296 5.36915L5.86095 5.38173C5.08011 5.83343 4.6416 6.77013 4.6416 7.61313V12.912C4.6416 13.8813 5.19397 14.5307 5.86095 14.9165C6.05923 15.0312 6.2751 15.1189 6.50311 15.1745C6.60408 15.2193 6.71583 15.2442 6.83341 15.2442ZM14.8104 5.36915L14.7747 5.43229L14.8088 5.3686L14.8104 5.36915Z" fill="#554F9B"/>
<path d="M14.4313 12.3114C13.6222 11.7358 12.4888 11.8122 11.7654 12.54C10.9582 13.3524 10.9971 14.595 11.7086 15.4435L11.7214 15.4598L11.7246 15.4638C11.7368 15.4789 11.7536 15.4998 11.7745 15.5257C11.8199 15.582 11.8851 15.6614 11.9654 15.7566C12.1251 15.9462 12.3475 16.2014 12.594 16.4584C12.8376 16.7124 13.1191 16.9834 13.3961 17.1956C13.5344 17.3017 13.6862 17.4042 13.8434 17.4826C13.9917 17.5569 14.2017 17.6368 14.4313 17.6368C14.6608 17.6368 14.8641 17.5604 15.0124 17.4878C15.1686 17.4114 15.319 17.3115 15.4557 17.2081C15.7295 17.0016 16.0054 16.738 16.2436 16.4915C16.4848 16.2416 16.7016 15.9941 16.8571 15.8102C16.9353 15.7178 16.9989 15.6405 17.0431 15.586C17.0653 15.5587 17.0827 15.5371 17.0948 15.5219L17.102 15.5129C17.8622 14.6479 17.9088 13.3568 17.0972 12.54C16.3738 11.812 15.2404 11.7358 14.4313 12.3114Z" fill="#554F9B"/>
</svg>
