<svg width="20" height="20" viewBox="0 0 20 20" fill="none" xmlns="http://www.w3.org/2000/svg">
<path fill-rule="evenodd" clip-rule="evenodd" d="M6.13519 3.72956C4.7918 3.72956 3.70276 4.8186 3.70276 6.16199V15.8917C3.70276 17.2351 4.7918 18.3241 6.13519 18.3241H14.2433C15.5867 18.3241 16.6757 17.2351 16.6757 15.8917V6.16199C16.6757 4.8186 15.5867 3.72956 14.2433 3.72955C14.2433 5.07294 13.1543 6.16199 11.8109 6.16199H8.56763C7.22423 6.16199 6.13519 5.07295 6.13519 3.72956ZM9.32676 9.00074C9.59694 9.01356 9.84294 9.16025 9.98264 9.39186L11.0343 11.1354L11.4065 10.5771C11.5569 10.3516 11.81 10.2161 12.0811 10.2161H12.6217C13.0695 10.2161 13.4325 10.5791 13.4325 11.0269C13.4325 11.4747 13.0695 11.8377 12.6217 11.8377H12.5151L11.6747 13.0982C11.5207 13.3292 11.2592 13.4654 10.9817 13.4591C10.7042 13.4528 10.4491 13.305 10.3058 13.0673L9.21931 11.266L9.03898 11.5095C8.88606 11.7159 8.64436 11.8377 8.38745 11.8377H7.75681C7.30901 11.8377 6.946 11.4747 6.946 11.0269C6.946 10.5791 7.30901 10.2161 7.75681 10.2161H7.97902L8.63681 9.32803C8.79781 9.11068 9.05658 8.98793 9.32676 9.00074Z" fill="#554F9B"/>
<rect x="7.75671" y="2.10797" width="4.86487" height="2.43243" rx="1.21622" fill="#554F9B"/>
</svg>
